<svg width="241" height="197" viewBox="0 0 241 197" fill="none" xmlns="http://www.w3.org/2000/svg">
<path d="M135.6 47.049C139.254 48.1008 147.453 50.9326 156.002 55.6792C164.592 60.3449 173.384 66.9523 179.587 72.8316C183.2 76.2028 186.612 79.8032 189.767 83.6194C191.345 85.5207 192.788 87.4895 194.298 89.4313C195.782 91.3865 197.117 93.4362 198.519 95.4319C203.953 103.577 208.565 112.18 212.53 121.012C220.459 138.704 225.826 157.165 230.37 175.571C231.799 181.329 234.348 191.052 231.341 191.632C228.212 192.238 224.733 186.211 222.131 176.299C218.975 164.298 215.658 152.351 211.505 140.74C207.419 129.117 202.322 117.87 195.97 107.528C191.305 100.003 186.046 92.8024 180.234 86.3028C174.368 79.8437 167.734 74.0453 160.533 69.1234C153.318 64.215 145.524 60.1561 137.353 57.2569C129.181 54.3712 120.605 52.6586 112.042 52.5642C104.356 52.4294 96.7099 53.6834 89.5091 56.1916C87.6886 56.8523 85.9626 57.4861 84.3444 58.3222C82.7128 59.1447 81.1216 60.0617 79.6518 61.1C76.7391 63.1766 74.204 65.6983 72.7746 68.5166C71.2913 71.2944 70.9677 74.3554 71.8442 77.2142C72.6937 80.0864 74.7838 82.7968 77.4538 84.9004C78.7888 85.9522 80.2721 86.8557 81.8228 87.5839C82.6049 87.948 83.387 88.2716 84.2365 88.5143C85.0726 88.757 85.8952 89.0807 86.7447 89.2695C90.1563 90.0785 93.7567 90.0785 97.2897 89.5796C110.626 87.5434 122.762 76.7422 125.756 63.8778C127.334 57.3513 126.929 50.3662 124.96 43.8127C124.016 40.5089 122.546 37.3805 120.901 34.3464C119.229 31.3259 117.139 28.548 114.901 25.932C110.882 21.4956 106.284 17.7738 100.877 15.0769C95.5232 12.3799 89.6709 10.4651 83.6028 9.60209C77.5482 8.68513 71.2913 8.63119 65.1288 9.45376C62.0408 9.80436 58.9933 10.4921 55.9592 11.2472C52.9522 12.1102 49.9855 13.0407 47.0998 14.2813C44.3489 15.387 41.4902 16.9782 38.6449 18.7177C35.8131 20.4842 33.0218 22.453 30.3653 24.3273C25.9154 27.3749 19.1057 33.3351 15.2086 37.0973C13.5095 38.6885 11.7565 40.401 10.3271 42.1945C7.07734 46.3478 4.98722 48.9234 3.50391 49.7864C2.03408 50.6494 1.21152 49.8403 0.914854 47.3456C0.793492 46.2399 -0.568467 46.3747 0.631667 43.9475C0.685606 43.8531 0.780011 43.6508 0.833949 43.5565C4.2186 35.8837 10.6912 30.2471 16.9886 24.6645C24.7422 17.7603 33.4803 11.8001 43.0949 7.51196C52.7229 3.19687 63.2275 0.742665 73.8534 0.513426C84.4523 0.284186 95.2805 2.32037 104.962 7.13439C109.79 9.50769 114.361 12.6496 118.299 16.3849C122.25 20.1066 125.648 24.3948 128.385 29.0739C130.111 31.9192 131.446 34.9937 132.66 38.1087C133.725 41.2775 134.656 44.5139 135.128 47.8581C136.126 54.506 135.883 61.4641 133.793 68.0176C131.73 74.6386 127.981 80.5853 123.207 85.4128C118.38 90.1999 112.568 93.9486 106.122 96.3354C102.576 97.549 98.8809 98.5873 95.0108 98.8166C93.096 99.0593 91.1272 98.8975 89.1854 98.7896C88.2011 98.7492 87.2436 98.4795 86.2728 98.3177C85.3019 98.1154 84.331 97.967 83.4005 97.603L83.5354 97.6434C79.5439 96.6456 75.6064 94.8656 72.2082 92.3305C68.8236 89.7819 65.7761 86.4377 63.9152 82.1765C62.1757 78.1446 61.6902 73.3036 62.8769 68.975C63.9826 64.5656 66.4773 60.9112 69.2821 57.9716C72.1408 55.0858 75.3367 52.753 78.7348 50.9326C80.4204 49.9886 82.1869 49.2065 83.9399 48.4784C85.6794 47.8446 87.392 47.1569 89.1719 46.6579C92.6914 45.5387 96.2919 44.7431 99.9057 44.2172C103.52 43.6508 107.147 43.4351 110.747 43.4216C117.948 43.3946 124.974 44.433 131.622 46.132C132.62 46.3747 134.076 46.5905 135.6 47.049Z" fill="black"/>
<path d="M230.06 145.015C229.992 142.062 229.803 131.625 229.507 124.95C228.846 109.469 228.145 94.016 228.293 78.5221C228.307 76.1084 228.104 72.0091 231.152 71.9147C234.321 71.8203 236.33 74.4768 236.438 78.6974C236.694 88.9188 236.451 99.2211 237.436 109.362C238.879 124.195 238.96 139.068 239.512 153.915C239.769 160.59 239.917 167.265 240.038 173.94C240.065 175.625 240.119 177.23 240.119 179.037C240.106 180.83 240.038 182.745 239.661 184.781C239.472 185.793 239.202 186.844 238.811 187.883C238.407 188.988 237.867 190.04 237.193 191.011C235.845 192.939 233.97 194.787 231.111 195.717C230.06 196.054 228.913 196.203 227.781 196.149C226.392 196.081 225.084 195.677 223.978 195.137C222.872 194.598 221.955 193.937 221.173 193.263C219.623 191.915 218.503 190.512 217.532 189.218L212.179 181.99C208.646 177.203 205.127 172.389 201.755 167.494C195.62 158.594 190.118 149.276 184.198 140.241C182.809 138.111 180.598 135.913 179.047 133.593C177.766 131.679 175.595 128.496 174.516 126.474C174.044 125.597 173.586 124.68 172.939 123.938C169.986 120.581 170.228 118.99 173.936 118.234C174.759 118.073 175.366 117.183 176.404 117.763C176.445 117.789 176.539 117.83 176.579 117.857C180.166 119.327 181.272 122.63 183.227 125.368C192.829 138.799 202.254 152.351 211.747 165.849L220.445 178.309L222.63 181.41C223.358 182.421 224.126 183.527 224.801 184.417C225.488 185.321 226.163 186.116 226.796 186.656C227.43 187.208 227.97 187.438 228.199 187.438C228.266 187.451 228.307 187.424 228.361 187.411C228.509 187.316 228.563 187.235 228.9 186.925C229.197 186.642 229.601 186.197 230.046 185.712L230.033 185.725C230.221 185.375 230.356 185.024 230.464 184.619C230.586 184.174 230.68 183.689 230.761 183.177C230.896 182.138 230.95 180.965 230.977 179.671C231.004 178.457 230.963 177.095 230.936 175.679C230.909 174.277 230.869 172.888 230.842 171.485C230.761 168.681 230.68 165.862 230.599 163.071C230.437 157.475 230.302 151.933 230.275 146.62C230.235 146.188 230.073 145.622 230.06 145.015Z" fill="black"/>
</svg>
